<mxfile host="app.diagrams.net" agent="Mozilla/5.0 (Windows NT 10.0; Win64; x64) AppleWebKit/537.36 (KHTML, like Gecko) Chrome/139.0.0.0 Safari/537.36" version="28.0.6">
  <diagram id="C5RBs43oDa-KdzZeNtuy" name="Page-1">
    <mxGraphModel dx="2253" dy="777" grid="1" gridSize="10" guides="1" tooltips="1" connect="1" arrows="1" fold="1" page="1" pageScale="1" pageWidth="827" pageHeight="1169" math="0" shadow="0">
      <root>
        <mxCell id="WIyWlLk6GJQsqaUBKTNV-0" />
        <mxCell id="WIyWlLk6GJQsqaUBKTNV-1" parent="WIyWlLk6GJQsqaUBKTNV-0" />
        <mxCell id="5TPFpWVVb7ImWA8I7Rm3-0" value="User" style="swimlane;fontStyle=0;childLayout=stackLayout;horizontal=1;startSize=26;fillColor=none;horizontalStack=0;resizeParent=1;resizeParentMax=0;resizeLast=0;collapsible=1;marginBottom=0;whiteSpace=wrap;html=1;" vertex="1" parent="WIyWlLk6GJQsqaUBKTNV-1">
          <mxGeometry x="-70" y="80" width="150" height="160" as="geometry" />
        </mxCell>
        <mxCell id="5TPFpWVVb7ImWA8I7Rm3-1" value="&lt;u&gt;&amp;nbsp;{PK} - userId: int&lt;/u&gt;" style="text;align=left;verticalAlign=top;spacingLeft=4;spacingRight=4;overflow=hidden;rotatable=0;points=[[0,0.5],[1,0.5]];portConstraint=eastwest;whiteSpace=wrap;html=1;glass=0;" vertex="1" parent="5TPFpWVVb7ImWA8I7Rm3-0">
          <mxGeometry y="26" width="150" height="26" as="geometry" />
        </mxCell>
        <mxCell id="5TPFpWVVb7ImWA8I7Rm3-3" value="- firstName: string&lt;div&gt;- lastName: string&lt;/div&gt;&lt;div&gt;- email: string&lt;/div&gt;&lt;div&gt;- phoneNumber: string&lt;/div&gt;&lt;div&gt;- userRole: UserRole&lt;/div&gt;&lt;div&gt;- isActive: boolean&lt;/div&gt;&lt;div&gt;- createdDate: DateTime&lt;/div&gt;" style="text;strokeColor=none;fillColor=none;align=left;verticalAlign=top;spacingLeft=4;spacingRight=4;overflow=hidden;rotatable=0;points=[[0,0.5],[1,0.5]];portConstraint=eastwest;whiteSpace=wrap;html=1;" vertex="1" parent="5TPFpWVVb7ImWA8I7Rm3-0">
          <mxGeometry y="52" width="150" height="108" as="geometry" />
        </mxCell>
        <mxCell id="5TPFpWVVb7ImWA8I7Rm3-41" value="" style="endArrow=classic;html=1;rounded=0;entryX=0;entryY=0.115;entryDx=0;entryDy=0;entryPerimeter=0;" edge="1" parent="5TPFpWVVb7ImWA8I7Rm3-0" target="5TPFpWVVb7ImWA8I7Rm3-8">
          <mxGeometry width="50" height="50" relative="1" as="geometry">
            <mxPoint x="70" y="160" as="sourcePoint" />
            <mxPoint x="160" y="280" as="targetPoint" />
            <Array as="points">
              <mxPoint x="70" y="280" />
            </Array>
          </mxGeometry>
        </mxCell>
        <mxCell id="5TPFpWVVb7ImWA8I7Rm3-4" value="Module" style="swimlane;fontStyle=0;childLayout=stackLayout;horizontal=1;startSize=26;fillColor=none;horizontalStack=0;resizeParent=1;resizeParentMax=0;resizeLast=0;collapsible=1;marginBottom=0;whiteSpace=wrap;html=1;" vertex="1" parent="WIyWlLk6GJQsqaUBKTNV-1">
          <mxGeometry x="280" y="80" width="220" height="160" as="geometry" />
        </mxCell>
        <mxCell id="5TPFpWVVb7ImWA8I7Rm3-5" value="&lt;u&gt;{PK} - moduleId: int&lt;/u&gt;" style="text;align=left;verticalAlign=top;spacingLeft=4;spacingRight=4;overflow=hidden;rotatable=0;points=[[0,0.5],[1,0.5]];portConstraint=eastwest;whiteSpace=wrap;html=1;glass=0;" vertex="1" parent="5TPFpWVVb7ImWA8I7Rm3-4">
          <mxGeometry y="26" width="220" height="26" as="geometry" />
        </mxCell>
        <mxCell id="5TPFpWVVb7ImWA8I7Rm3-6" value="-&amp;nbsp; moduleCode: string&lt;div&gt;&lt;div&gt;-&amp;nbsp; moduleName: string&lt;/div&gt;&lt;div&gt;-&amp;nbsp; standardHourlyRate: decimal&lt;/div&gt;&lt;div&gt;-&amp;nbsp; isActive: boolean&lt;/div&gt;&lt;/div&gt;" style="text;strokeColor=none;fillColor=none;align=left;verticalAlign=top;spacingLeft=4;spacingRight=4;overflow=hidden;rotatable=0;points=[[0,0.5],[1,0.5]];portConstraint=eastwest;whiteSpace=wrap;html=1;" vertex="1" parent="5TPFpWVVb7ImWA8I7Rm3-4">
          <mxGeometry y="52" width="220" height="108" as="geometry" />
        </mxCell>
        <mxCell id="5TPFpWVVb7ImWA8I7Rm3-7" value="Claim" style="swimlane;fontStyle=0;childLayout=stackLayout;horizontal=1;startSize=26;fillColor=none;horizontalStack=0;resizeParent=1;resizeParentMax=0;resizeLast=0;collapsible=1;marginBottom=0;whiteSpace=wrap;html=1;" vertex="1" parent="WIyWlLk6GJQsqaUBKTNV-1">
          <mxGeometry x="100" y="330" width="200" height="230" as="geometry" />
        </mxCell>
        <mxCell id="5TPFpWVVb7ImWA8I7Rm3-8" value="{PK} - claimId: int" style="text;align=left;verticalAlign=top;spacingLeft=4;spacingRight=4;overflow=hidden;rotatable=0;points=[[0,0.5],[1,0.5]];portConstraint=eastwest;whiteSpace=wrap;html=1;glass=0;fontStyle=4" vertex="1" parent="5TPFpWVVb7ImWA8I7Rm3-7">
          <mxGeometry y="26" width="200" height="26" as="geometry" />
        </mxCell>
        <mxCell id="5TPFpWVVb7ImWA8I7Rm3-9" value="&lt;div&gt;&lt;span style=&quot;background-color: transparent; color: light-dark(rgb(0, 0, 0), rgb(255, 255, 255));&quot;&gt;{FK} - userId: int&lt;/span&gt;&lt;/div&gt;&lt;div&gt;{FK} - moduleId: int&lt;/div&gt;&lt;div&gt;- hoursWorked: decimal&lt;/div&gt;&lt;div&gt;- hourlyRate: decimal&lt;/div&gt;&lt;div&gt;- totalAmount: decimal&lt;/div&gt;&lt;div&gt;- claimPeriod: string&lt;/div&gt;&lt;div&gt;- additionalNotes: string&lt;/div&gt;&lt;div&gt;- currentStatus: ClaimStatus&lt;/div&gt;&lt;div&gt;- submissionDate: DateTime&lt;/div&gt;&lt;div&gt;- lastModified: DateTime&lt;/div&gt;" style="text;strokeColor=none;fillColor=none;align=left;verticalAlign=top;spacingLeft=4;spacingRight=4;overflow=hidden;rotatable=0;points=[[0,0.5],[1,0.5]];portConstraint=eastwest;whiteSpace=wrap;html=1;" vertex="1" parent="5TPFpWVVb7ImWA8I7Rm3-7">
          <mxGeometry y="52" width="200" height="178" as="geometry" />
        </mxCell>
        <mxCell id="5TPFpWVVb7ImWA8I7Rm3-10" value="SupportingDocument" style="swimlane;fontStyle=0;childLayout=stackLayout;horizontal=1;startSize=26;fillColor=none;horizontalStack=0;resizeParent=1;resizeParentMax=0;resizeLast=0;collapsible=1;marginBottom=0;whiteSpace=wrap;html=1;" vertex="1" parent="WIyWlLk6GJQsqaUBKTNV-1">
          <mxGeometry x="-180" y="390" width="160" height="164" as="geometry" />
        </mxCell>
        <mxCell id="5TPFpWVVb7ImWA8I7Rm3-12" value="&lt;div&gt;&lt;u&gt;{PK} - documentId: int&lt;/u&gt;&lt;/div&gt;&lt;div&gt;&lt;u&gt;&lt;br&gt;&lt;/u&gt;&lt;/div&gt;&lt;div&gt;{FK} - claimId: int&lt;/div&gt;&lt;div&gt;- fileName: string&lt;/div&gt;&lt;div&gt;- filePath: string&lt;/div&gt;&lt;div&gt;- fileSize: long&lt;/div&gt;&lt;div&gt;- fileType: string&lt;/div&gt;&lt;div&gt;- uploadDate: DateTime&lt;/div&gt;&lt;div&gt;&lt;br&gt;&lt;/div&gt;" style="text;strokeColor=none;fillColor=none;align=left;verticalAlign=top;spacingLeft=4;spacingRight=4;overflow=hidden;rotatable=0;points=[[0,0.5],[1,0.5]];portConstraint=eastwest;whiteSpace=wrap;html=1;" vertex="1" parent="5TPFpWVVb7ImWA8I7Rm3-10">
          <mxGeometry y="26" width="160" height="138" as="geometry" />
        </mxCell>
        <mxCell id="5TPFpWVVb7ImWA8I7Rm3-16" value="ClaimStatusHistory" style="swimlane;fontStyle=0;childLayout=stackLayout;horizontal=1;startSize=26;fillColor=none;horizontalStack=0;resizeParent=1;resizeParentMax=0;resizeLast=0;collapsible=1;marginBottom=0;whiteSpace=wrap;html=1;" vertex="1" parent="WIyWlLk6GJQsqaUBKTNV-1">
          <mxGeometry x="440" y="350" width="160" height="210" as="geometry" />
        </mxCell>
        <mxCell id="5TPFpWVVb7ImWA8I7Rm3-17" value="&lt;div&gt;&lt;div&gt;&lt;u&gt;{PK} - statusId: int&lt;/u&gt;&lt;/div&gt;&lt;div&gt;&lt;u&gt;&lt;br&gt;&lt;/u&gt;&lt;/div&gt;&lt;div&gt;{FK} - claimId: int&lt;/div&gt;&lt;div&gt;- changedBy: int&lt;/div&gt;&lt;div&gt;- previousStatus: ClaimStatus&lt;/div&gt;&lt;div&gt;- newStatus: ClaimStatus&lt;/div&gt;&lt;div&gt;- changeDate: DateTime&lt;/div&gt;&lt;div&gt;- comments: string&lt;/div&gt;&lt;/div&gt;" style="text;strokeColor=none;fillColor=none;align=left;verticalAlign=top;spacingLeft=4;spacingRight=4;overflow=hidden;rotatable=0;points=[[0,0.5],[1,0.5]];portConstraint=eastwest;whiteSpace=wrap;html=1;" vertex="1" parent="5TPFpWVVb7ImWA8I7Rm3-16">
          <mxGeometry y="26" width="160" height="184" as="geometry" />
        </mxCell>
        <mxCell id="5TPFpWVVb7ImWA8I7Rm3-18" style="edgeStyle=orthogonalEdgeStyle;rounded=0;orthogonalLoop=1;jettySize=auto;html=1;entryX=0;entryY=0.5;entryDx=0;entryDy=0;" edge="1" parent="WIyWlLk6GJQsqaUBKTNV-1" source="5TPFpWVVb7ImWA8I7Rm3-3" target="5TPFpWVVb7ImWA8I7Rm3-6">
          <mxGeometry relative="1" as="geometry" />
        </mxCell>
        <mxCell id="5TPFpWVVb7ImWA8I7Rm3-20" style="edgeStyle=orthogonalEdgeStyle;rounded=0;orthogonalLoop=1;jettySize=auto;html=1;entryX=1;entryY=0.5;entryDx=0;entryDy=0;" edge="1" parent="WIyWlLk6GJQsqaUBKTNV-1" source="5TPFpWVVb7ImWA8I7Rm3-5" target="5TPFpWVVb7ImWA8I7Rm3-1">
          <mxGeometry relative="1" as="geometry" />
        </mxCell>
        <mxCell id="5TPFpWVVb7ImWA8I7Rm3-21" value="1..*" style="text;html=1;align=center;verticalAlign=middle;resizable=0;points=[];autosize=1;strokeColor=none;fillColor=none;" vertex="1" parent="WIyWlLk6GJQsqaUBKTNV-1">
          <mxGeometry x="70" y="158" width="40" height="30" as="geometry" />
        </mxCell>
        <mxCell id="5TPFpWVVb7ImWA8I7Rm3-22" value="*..1" style="text;html=1;align=center;verticalAlign=middle;resizable=0;points=[];autosize=1;strokeColor=none;fillColor=none;" vertex="1" parent="WIyWlLk6GJQsqaUBKTNV-1">
          <mxGeometry x="240" y="90" width="40" height="30" as="geometry" />
        </mxCell>
        <mxCell id="5TPFpWVVb7ImWA8I7Rm3-24" value="1..*" style="text;html=1;align=center;verticalAlign=middle;resizable=0;points=[];autosize=1;strokeColor=none;fillColor=none;" vertex="1" parent="WIyWlLk6GJQsqaUBKTNV-1">
          <mxGeometry x="60" y="330" width="40" height="30" as="geometry" />
        </mxCell>
        <mxCell id="5TPFpWVVb7ImWA8I7Rm3-25" value="*..1" style="text;html=1;align=center;verticalAlign=middle;resizable=0;points=[];autosize=1;strokeColor=none;fillColor=none;" vertex="1" parent="WIyWlLk6GJQsqaUBKTNV-1">
          <mxGeometry x="-50" y="240" width="40" height="30" as="geometry" />
        </mxCell>
        <mxCell id="5TPFpWVVb7ImWA8I7Rm3-30" style="edgeStyle=orthogonalEdgeStyle;rounded=0;orthogonalLoop=1;jettySize=auto;html=1;entryX=1.019;entryY=0.399;entryDx=0;entryDy=0;entryPerimeter=0;" edge="1" parent="WIyWlLk6GJQsqaUBKTNV-1" source="5TPFpWVVb7ImWA8I7Rm3-9" target="5TPFpWVVb7ImWA8I7Rm3-12">
          <mxGeometry relative="1" as="geometry" />
        </mxCell>
        <mxCell id="5TPFpWVVb7ImWA8I7Rm3-31" style="edgeStyle=orthogonalEdgeStyle;rounded=0;orthogonalLoop=1;jettySize=auto;html=1;entryX=0.015;entryY=0.573;entryDx=0;entryDy=0;entryPerimeter=0;" edge="1" parent="WIyWlLk6GJQsqaUBKTNV-1" source="5TPFpWVVb7ImWA8I7Rm3-12" target="5TPFpWVVb7ImWA8I7Rm3-9">
          <mxGeometry relative="1" as="geometry">
            <mxPoint x="90" y="485" as="targetPoint" />
          </mxGeometry>
        </mxCell>
        <mxCell id="5TPFpWVVb7ImWA8I7Rm3-33" style="edgeStyle=orthogonalEdgeStyle;rounded=0;orthogonalLoop=1;jettySize=auto;html=1;entryX=1;entryY=0.388;entryDx=0;entryDy=0;entryPerimeter=0;" edge="1" parent="WIyWlLk6GJQsqaUBKTNV-1" source="5TPFpWVVb7ImWA8I7Rm3-17" target="5TPFpWVVb7ImWA8I7Rm3-9">
          <mxGeometry relative="1" as="geometry">
            <Array as="points">
              <mxPoint x="410" y="451" />
              <mxPoint x="410" y="451" />
            </Array>
          </mxGeometry>
        </mxCell>
        <mxCell id="5TPFpWVVb7ImWA8I7Rm3-32" style="edgeStyle=orthogonalEdgeStyle;rounded=0;orthogonalLoop=1;jettySize=auto;html=1;" edge="1" parent="WIyWlLk6GJQsqaUBKTNV-1" source="5TPFpWVVb7ImWA8I7Rm3-9" target="5TPFpWVVb7ImWA8I7Rm3-17">
          <mxGeometry relative="1" as="geometry">
            <mxPoint x="430" y="471" as="targetPoint" />
            <Array as="points">
              <mxPoint x="370" y="471" />
              <mxPoint x="370" y="470" />
            </Array>
          </mxGeometry>
        </mxCell>
        <mxCell id="5TPFpWVVb7ImWA8I7Rm3-34" value="*..1" style="text;html=1;align=center;verticalAlign=middle;resizable=0;points=[];autosize=1;strokeColor=none;fillColor=none;" vertex="1" parent="WIyWlLk6GJQsqaUBKTNV-1">
          <mxGeometry x="-30" y="488" width="40" height="30" as="geometry" />
        </mxCell>
        <mxCell id="5TPFpWVVb7ImWA8I7Rm3-35" value="1..*" style="text;html=1;align=center;verticalAlign=middle;resizable=0;points=[];autosize=1;strokeColor=none;fillColor=none;" vertex="1" parent="WIyWlLk6GJQsqaUBKTNV-1">
          <mxGeometry x="60" y="450" width="40" height="30" as="geometry" />
        </mxCell>
        <mxCell id="5TPFpWVVb7ImWA8I7Rm3-36" value="1..*" style="text;html=1;align=center;verticalAlign=middle;resizable=0;points=[];autosize=1;strokeColor=none;fillColor=none;" vertex="1" parent="WIyWlLk6GJQsqaUBKTNV-1">
          <mxGeometry x="290" y="468" width="40" height="30" as="geometry" />
        </mxCell>
        <mxCell id="5TPFpWVVb7ImWA8I7Rm3-37" value="*..1" style="text;html=1;align=center;verticalAlign=middle;resizable=0;points=[];autosize=1;strokeColor=none;fillColor=none;" vertex="1" parent="WIyWlLk6GJQsqaUBKTNV-1">
          <mxGeometry x="400" y="420" width="40" height="30" as="geometry" />
        </mxCell>
        <mxCell id="5TPFpWVVb7ImWA8I7Rm3-39" value="&lt;div&gt;&amp;lt;&amp;lt;enumeration&amp;gt;&amp;gt;&lt;/div&gt;&lt;div&gt;UserRole&lt;/div&gt;&lt;div&gt;Lecturer&lt;/div&gt;&lt;div&gt;Coordinator&lt;/div&gt;&lt;div&gt;Manager&lt;/div&gt;&lt;div&gt;HR&lt;/div&gt;" style="text;html=1;align=center;verticalAlign=middle;resizable=0;points=[];autosize=1;strokeColor=#666666;fillColor=#f5f5f5;fontColor=#333333;" vertex="1" parent="WIyWlLk6GJQsqaUBKTNV-1">
          <mxGeometry x="590" y="55" width="120" height="100" as="geometry" />
        </mxCell>
        <mxCell id="5TPFpWVVb7ImWA8I7Rm3-40" value="&lt;div&gt;&amp;lt;&amp;lt;enumeration&amp;gt;&amp;gt;&lt;/div&gt;&lt;div&gt;ClaimStatus&lt;/div&gt;&lt;div&gt;Draft&lt;/div&gt;&lt;div&gt;Submitted&lt;/div&gt;&lt;div&gt;UnderReview&lt;/div&gt;&lt;div&gt;Approved&lt;/div&gt;&lt;div&gt;Rejected&lt;/div&gt;&lt;div&gt;Paid&lt;/div&gt;" style="text;html=1;align=center;verticalAlign=middle;resizable=0;points=[];autosize=1;strokeColor=#666666;fillColor=#f5f5f5;fontColor=#333333;" vertex="1" parent="WIyWlLk6GJQsqaUBKTNV-1">
          <mxGeometry x="590" y="173" width="120" height="130" as="geometry" />
        </mxCell>
        <mxCell id="5TPFpWVVb7ImWA8I7Rm3-42" value="" style="endArrow=classic;html=1;rounded=0;exitX=-0.005;exitY=-0.017;exitDx=0;exitDy=0;exitPerimeter=0;" edge="1" parent="WIyWlLk6GJQsqaUBKTNV-1" source="5TPFpWVVb7ImWA8I7Rm3-9">
          <mxGeometry width="50" height="50" relative="1" as="geometry">
            <mxPoint x="-10" y="380" as="sourcePoint" />
            <mxPoint x="-10" y="240" as="targetPoint" />
            <Array as="points">
              <mxPoint x="40" y="380" />
              <mxPoint x="-10" y="380" />
            </Array>
          </mxGeometry>
        </mxCell>
      </root>
    </mxGraphModel>
  </diagram>
</mxfile>
